<svg xmlns="http://www.w3.org/2000/svg" viewBox="0 0 33.69 36.9"><title>PDF-Icon</title><g id="Слой_2" data-name="Слой 2"><g id="Layer_1" data-name="Layer 1"><path d="M8.81,18.15H5.15a.73.73,0,0,0-.73.73v8.77a.73.73,0,1,0,1.46,0V24H8.81a2.93,2.93,0,0,0,0-5.85m0,4.38H5.88V19.61H8.81a1.46,1.46,0,0,1,0,2.92"/><path d="M15.39,18.15H13.92a.73.73,0,0,0-.73.73v8.77a.73.73,0,0,0,.73.73h1.47a5.12,5.12,0,0,0,0-10.23m0,8.77h-.74V19.61h.74a3.66,3.66,0,0,1,0,7.31"/><path d="M22.69,18.15a.73.73,0,0,0-.73.73v8.77a.74.74,0,0,0,1.47,0V24h3.65a.74.74,0,0,0,0-1.47H23.43V19.61h5.11a.73.73,0,1,0,0-1.46Z"/><path d="M32.89,14.44H30.48V.8a.8.8,0,0,0-.8-.8H12l-.1,0-.1,0a.84.84,0,0,0-.36.19l-8,8a.84.84,0,0,0-.19.36.44.44,0,0,0,0,.1.44.44,0,0,0,0,.1v5.62H.8a.8.8,0,0,0-.8.8v16a.8.8,0,0,0,.8.8H3.21v4a.8.8,0,0,0,.8.8H29.68a.8.8,0,0,0,.8-.8v-4h2.41a.8.8,0,0,0,.8-.8v-16a.8.8,0,0,0-.8-.8M11.23,2.74V8H6ZM4.81,9.63H12a.81.81,0,0,0,.81-.81V1.6h16V14.44H4.81ZM28.88,35.3H4.81V32.09H28.88Zm3.21-4.82H1.6V16H32.09Z"/></g></g></svg>